<svg width="54" height="44" viewBox="0 0 54 44" fill="none" xmlns="http://www.w3.org/2000/svg">
<path d="M9.57971 1.98513L2.68383 1C1.24671 1.32451 0.964695 2.29418 1.00333 2.73846C1.00333 3.94379 1.89187 4.55418 2.33614 4.70871L7.78331 5.57793L16.7074 31.2491C17.1246 32.6399 18.3879 32.9103 18.9674 32.8717C22.3979 29.4875 25.8826 31.4616 27.1961 32.8717H36.1201C39.5043 29.4411 42.9001 31.4423 44.175 32.8717C45.2412 32.8717 45.8555 32.0991 46.0293 31.7127L52.9252 10.9671C53.2961 9.6691 52.1139 8.91963 51.4765 8.70716H13.2305L10.7387 2.97025C10.4605 2.32123 9.85014 2.04307 9.57971 1.98513Z" fill="#8EDCE6" stroke="#8EDCE6"/>
<circle cx="23.0793" cy="38.0866" r="5.15742" fill="#918F98"/>
<circle cx="40.2316" cy="38.0866" r="5.15742" fill="#918F98"/>
</svg>
