<svg xmlns="http://www.w3.org/2000/svg" width="21.353" height="21.353" viewBox="0 0 21.353 21.353">
  <g id="ic_category" transform="translate(-2 -2)">
    <g id="Group_54" data-name="Group 54" transform="translate(13.744 13.744)">
      <path id="Path_18" data-name="Path 18" d="M42.224,44.609h-4.84A2.385,2.385,0,0,1,35,42.224V35.712A.714.714,0,0,1,35.712,35h6.513a2.385,2.385,0,0,1,2.384,2.384v4.84a2.385,2.385,0,0,1-2.384,2.384Zm-5.8-8.185v5.8a.957.957,0,0,0,.961.961h4.84a.957.957,0,0,0,.961-.961v-4.84a.957.957,0,0,0-.961-.961Z" transform="translate(-35 -35)" fill="#023247"/>
    </g>
    <g id="Group_55" data-name="Group 55" transform="translate(2 13.744)">
      <path id="Path_19" data-name="Path 19" d="M9.224,44.609H4.384A2.385,2.385,0,0,1,2,42.224v-4.84A2.385,2.385,0,0,1,4.384,35H10.9a.714.714,0,0,1,.712.712v6.513A2.385,2.385,0,0,1,9.224,44.609Zm-4.84-8.185a.957.957,0,0,0-.961.961v4.84a.957.957,0,0,0,.961.961h4.84a.957.957,0,0,0,.961-.961v-5.8Z" transform="translate(-2 -35)" fill="#023247"/>
    </g>
    <g id="Group_56" data-name="Group 56" transform="translate(13.744 2)">
      <path id="Path_20" data-name="Path 20" d="M42.224,11.609H35.712A.714.714,0,0,1,35,10.9V4.384A2.385,2.385,0,0,1,37.384,2h4.84a2.385,2.385,0,0,1,2.384,2.384v4.84A2.385,2.385,0,0,1,42.224,11.609Zm-5.8-1.424h5.8a.957.957,0,0,0,.961-.961V4.384a.957.957,0,0,0-.961-.961h-4.84a.957.957,0,0,0-.961.961Z" transform="translate(-35 -2)" fill="#023247"/>
    </g>
    <g id="Group_57" data-name="Group 57" transform="translate(2 2)">
      <path id="Path_21" data-name="Path 21" d="M10.9,11.609H4.384A2.385,2.385,0,0,1,2,9.224V4.384A2.385,2.385,0,0,1,4.384,2h4.84a2.385,2.385,0,0,1,2.384,2.384V10.9A.714.714,0,0,1,10.9,11.609ZM4.384,3.424a.957.957,0,0,0-.961.961v4.84a.957.957,0,0,0,.961.961h5.8v-5.8a.957.957,0,0,0-.961-.961Z" transform="translate(-2 -2)" fill="#023247"/>
    </g>
  </g>
</svg>
