<svg width="21" height="21" viewBox="0 0 21 21" fill="none" xmlns="http://www.w3.org/2000/svg">
<path d="M0.835938 2.09375H2.22173C2.62248 2.09375 2.82286 2.09375 2.98575 2.16641C3.12936 2.23047 3.25204 2.33366 3.33975 2.46416C3.43925 2.6122 3.47359 2.80961 3.54225 3.20444L3.859 5.02576M3.859 5.02576L4.59873 9.27921C4.74883 10.1423 4.82389 10.5738 5.04616 10.8847C5.24187 11.1584 5.51547 11.3669 5.83133 11.4829C6.19006 11.6147 6.62604 11.5725 7.498 11.4881L15.5915 10.7049C16.4425 10.6225 16.868 10.5814 17.19 10.3899C17.4774 10.219 17.7072 9.96595 17.8496 9.66336C18.0091 9.32442 18.0091 8.89693 18.0091 8.04196V8.04196C18.0091 7.13331 18.0091 6.67898 17.835 6.32752C17.6798 6.01402 17.4302 5.757 17.1215 5.59251C16.7753 5.4081 16.3212 5.39465 15.4129 5.36777L3.859 5.02576Z" stroke="#213352" stroke-width="1.50789" stroke-linecap="round" stroke-linejoin="round"/>
<circle cx="7.12075" cy="15.917" r="1.67543" stroke="#213352" stroke-width="1.50789"/>
<circle cx="15.0778" cy="15.917" r="1.67543" stroke="#213352" stroke-width="1.50789"/>
</svg>
