<svg xmlns="http://www.w3.org/2000/svg" width="21.351" height="21.353" viewBox="0 0 21.351 21.353">
  <path id="ic_home" d="M21.277,9.287l0,0L12.565.575a1.965,1.965,0,0,0-2.78,0L1.08,9.281l-.009.009a1.965,1.965,0,0,0,1.308,3.349l.061,0h.347v6.41a2.3,2.3,0,0,0,2.3,2.3H8.495a.626.626,0,0,0,.626-.626V15.7a1.051,1.051,0,0,1,1.05-1.05h2.01a1.051,1.051,0,0,1,1.05,1.05v5.025a.626.626,0,0,0,.626.626h3.408a2.3,2.3,0,0,0,2.3-2.3v-6.41h.322a1.966,1.966,0,0,0,1.391-3.355Zm-.886,1.894a.71.71,0,0,1-.505.21h-.947a.626.626,0,0,0-.626.626v7.035a1.051,1.051,0,0,1-1.05,1.049H14.481V15.7a2.3,2.3,0,0,0-2.3-2.3H10.17a2.3,2.3,0,0,0-2.3,2.3v4.4H5.087a1.051,1.051,0,0,1-1.05-1.049V12.016a.626.626,0,0,0-.626-.626H2.451a.714.714,0,0,1-.492-1.219h0l8.71-8.71a.714.714,0,0,1,1.01,0l8.708,8.708,0,0a.716.716,0,0,1,0,1.01Zm0,0" transform="translate(-0.5 0)" fill="#023247"/>
</svg>
