<svg fill="currentColor" xmlns="http://www.w3.org/2000/svg" width="19.25" height="21.353" viewBox="0 0 19.25 21.353" >
  <g id="ic_user" transform="translate(0)">
    <path id="Path_28" data-name="Path 28" d="M92.482,11.715a5.858,5.858,0,1,1,5.858-5.858,5.864,5.864,0,0,1-5.858,5.858m0-10.41a4.552,4.552,0,1,0,4.552,4.552,4.558,4.558,0,0,0-4.552-4.552" transform="translate(-82.855)" />
    <path id="Path_29" data-name="Path 29" d="M9.6,258.415A10.9,10.9,0,0,1,3.03,256.24l-.021-.016a14.279,14.279,0,0,1-1.088-.947,9.291,9.291,0,0,1-1.115-1.261,9.777,9.777,0,0,1-.657-.975l-.017-.032a1.131,1.131,0,0,1-.033-.995,6.283,6.283,0,0,1,.576-1.049,7.073,7.073,0,0,1,4.912-3.1,1.508,1.508,0,0,1,1.154.279,4.9,4.9,0,0,0,5.768,0,1.608,1.608,0,0,1,1.113-.285l.024,0a7.155,7.155,0,0,1,4.927,3.1,5.46,5.46,0,0,1,.582,1.061,1.035,1.035,0,0,1-.123,1.059,8.621,8.621,0,0,1-.635.937,11.138,11.138,0,0,1-1.105,1.251,10.609,10.609,0,0,1-1.115.97A10.9,10.9,0,0,1,9.6,258.415M3.822,255.2a9.713,9.713,0,0,0,11.573-.008,9.278,9.278,0,0,0,.975-.848,9.919,9.919,0,0,0,.982-1.108l.008-.011a7.338,7.338,0,0,0,.548-.807,4.294,4.294,0,0,0-.409-.719l0-.006a5.849,5.849,0,0,0-4.012-2.536.332.332,0,0,0-.193.033l0,0a6.2,6.2,0,0,1-7.321,0l0,0a.21.21,0,0,0-.14-.041l-.039.007A5.768,5.768,0,0,0,1.76,251.69l-.008.011a4.9,4.9,0,0,0-.427.765,9.077,9.077,0,0,0,.526.767l0,0a8,8,0,0,0,.967,1.094l.014.014a12.874,12.874,0,0,0,.985.856" transform="translate(0 -237.063)"/>
  </g>
</svg>
