<svg width="23" height="22" viewBox="0 0 23 22" fill="none" xmlns="http://www.w3.org/2000/svg">
<path d="M16.5625 0.375C14.605 0.375 12.7262 1.28625 11.5 2.72625C10.2738 1.28625 8.395 0.375 6.4375 0.375C2.9725 0.375 0.25 3.0975 0.25 6.5625C0.25 10.815 4.075 14.28 9.86875 19.545L11.5 21.0188L13.1312 19.5338C18.925 14.28 22.75 10.815 22.75 6.5625C22.75 3.0975 20.0275 0.375 16.5625 0.375ZM11.6125 17.8687L11.5 17.9812L11.3875 17.8687C6.0325 13.02 2.5 9.81375 2.5 6.5625C2.5 4.3125 4.1875 2.625 6.4375 2.625C8.17 2.625 9.8575 3.73875 10.4537 5.28H12.5575C13.1425 3.73875 14.83 2.625 16.5625 2.625C18.8125 2.625 20.5 4.3125 20.5 6.5625C20.5 9.81375 16.9675 13.02 11.6125 17.8687Z" fill="black" fill-opacity="0.9"/>
</svg>
